HIERARCHY
ROOT Hips
{
	OFFSET 0.000000 0.000000 0.000000 
	CHANNELS 6 Xposition Yposition Zposition Zrotation Yrotation Xrotation
	JOINT LeftUpLeg
	{
		OFFSET 1.363060 -1.794630 0.839290 
		CHANNELS 3 Zrotation Yrotation Xrotation
		JOINT LeftLeg
		{
			OFFSET 2.448110 -6.726130 0.000000 
			CHANNELS 3 Zrotation Yrotation Xrotation
			JOINT LeftFoot
			{
				OFFSET 2.562200 -7.039590 0.000000 
				CHANNELS 3 Zrotation Yrotation Xrotation
				JOINT LeftToeBase
				{
					OFFSET 0.157640 -0.433110 2.322550 
					CHANNELS 3 Zrotation Yrotation Xrotation
					End Site
					{
						OFFSET 0.000000 0.000000 0.000000 
					}
				}
			}
		}
	}
	JOINT RightUpLeg
	{
		OFFSET -1.305520 -1.794630 0.839290 
		CHANNELS 3 Zrotation Yrotation Xrotation
		JOINT RightLeg
		{
			OFFSET -2.542530 -6.985550 0.000000 
			CHANNELS 3 Zrotation Yrotation Xrotation
			JOINT RightFoot
			{
				OFFSET -2.568260 -7.056230 0.000000 
				CHANNELS 3 Zrotation Yrotation Xrotation
				JOINT RightToeBase
				{
					OFFSET -0.164730 -0.452590 2.363150 
					CHANNELS 3 Zrotation Yrotation Xrotation
					End Site
					{
						OFFSET 0.000000 0.000000 0.000000 
					}
				}
			}
		}
	}
	JOINT Spine
	{
		OFFSET 0.028270 2.035590 -0.193380 
		CHANNELS 3 Zrotation Yrotation Xrotation
		JOINT Spine1
		{
			OFFSET 0.056720 2.048850 -0.042750 
			CHANNELS 3 Zrotation Yrotation Xrotation
			JOINT Neck1
			{
				OFFSET -0.054170 1.746240 0.172020 
				CHANNELS 3 Zrotation Yrotation Xrotation
				JOINT Head
				{
					OFFSET 0.104070 1.761360 -0.123970 
					CHANNELS 3 Zrotation Yrotation Xrotation
					End Site
					{
						OFFSET 0.000000 0.000000 0.000000 
					}
				}
			}
			JOINT LeftArm
			{
				OFFSET 3.362410 1.200890 -0.311210 
				CHANNELS 3 Zrotation Yrotation Xrotation
				JOINT LeftForeArm
				{
					OFFSET 4.983000 -0.000000 -0.000000 
					CHANNELS 3 Zrotation Yrotation Xrotation
					JOINT LeftHand
					{
						OFFSET 3.483560 -0.000000 -0.000000 
						CHANNELS 3 Zrotation Yrotation Xrotation
						JOINT LeftHandIndex1
						{
							OFFSET 0.715260 -0.000000 -0.000000 
							CHANNELS 3 Zrotation Yrotation Xrotation
							End Site
							{
								OFFSET 0.000000 0.000000 0.000000 
							}
						}
					}
				}
			}
			JOINT RightArm
			{
				OFFSET -3.136600 1.374050 -0.404650 
				CHANNELS 3 Zrotation Yrotation Xrotation
				JOINT RightForeArm
				{
					OFFSET -5.241900 -0.000000 -0.000000 
					CHANNELS 3 Zrotation Yrotation Xrotation
					JOINT RightHand
					{
						OFFSET -3.444170 -0.000000 -0.000000 
						CHANNELS 3 Zrotation Yrotation Xrotation
						JOINT RightHandIndex1
						{
							OFFSET -0.622530 -0.000000 -0.000000 
							CHANNELS 3 Zrotation Yrotation Xrotation
							End Site
							{
								OFFSET 0.000000 0.000000 0.000000 
							}
						}
					}
				}
			}
		}
	}
}
MOTION
Frames: 6
Frame Time: 0.041667
-0.724054 18.317372 5.849647 2.554289 2.570347 -0.164067 -17.097518 -9.846115 -3.251620 0.753912 5.993202 20.410102 -0.465260 4.668233 -10.126788 8.803800 -16.679800 -55.409100 3.079554 1.843072 -1.492692 0.007046 0.726248 1.401917 0.300314 -0.774844 5.481791 0.000000 0.000000 0.000000 -6.166547 1.215272 22.007188 1.103295 1.412729 -15.949572 1.825575 -3.306072 40.160634 0.204900 -1.068900 12.368500 -95.699558 7.399072 27.125269 23.611373 -32.745804 -5.809824 0.442826 -0.136481 14.225952 -7.125000 0.000000 0.000000 95.109410 -10.814033 23.886180 -31.558557 40.029823 -9.104824 1.014502 -3.410331 19.395622 7.125000 0.000000 0.000000 
-0.724250 18.317764 5.847785 2.527034 2.645011 -0.161154 -17.069394 -9.850037 -3.262541 0.757237 5.995790 20.416653 -0.452490 4.598113 -10.076861 8.788200 -16.669400 -55.354600 3.083475 1.841706 -1.496235 0.006828 0.723740 1.401091 0.299549 -0.777365 5.481000 0.000000 0.000000 0.000000 -6.052462 1.163122 21.879190 1.100096 1.395093 -15.986206 1.681830 -3.270051 40.212060 0.167300 -1.073200 12.370200 -95.804089 7.277317 26.769280 23.424561 -32.550578 -5.727935 0.438184 -0.152092 14.569687 -7.125000 0.000000 0.000000 95.090417 -10.860169 23.903242 -31.553565 40.014046 -9.094942 1.018328 -3.407906 19.420409 7.125000 0.000000 0.000000 
-0.720626 18.318744 5.843279 2.579482 2.552908 -0.111426 -17.129067 -9.846955 -3.298190 0.752072 5.993567 20.400694 -0.465694 4.665063 -10.099887 8.778400 -16.663000 -55.320600 3.081479 1.842137 -1.496375 0.007166 0.724041 1.401422 0.299661 -0.776789 5.480590 0.000000 0.000000 0.000000 -6.205446 1.218797 21.817210 1.124864 1.417407 -15.984791 1.735636 -3.307386 40.266308 0.176300 -1.081100 12.392900 -95.819768 7.183396 26.700787 23.351005 -32.476292 -5.696050 0.437319 -0.156420 14.642661 -7.125000 0.000000 0.000000 95.096456 -10.852891 23.879986 -31.549132 40.001321 -9.081921 1.019341 -3.403009 19.461451 7.125000 0.000000 0.000000 
-0.717883 18.319430 5.839067 2.636366 2.485301 -0.075516 -17.189507 -9.863426 -3.319432 0.745915 5.989943 20.383989 -0.482334 4.753492 -10.148206 8.790300 -16.670800 -55.362000 3.078973 1.842847 -1.495221 0.007439 0.725076 1.401892 0.299973 -0.775593 5.480621 0.000000 0.000000 0.000000 -6.342974 1.252163 21.815967 1.147646 1.428600 -15.967598 1.872377 -3.346537 40.310601 0.212200 -1.077900 12.414900 -95.737531 7.254962 26.956159 23.476707 -32.604865 -5.749730 0.439632 -0.144895 14.413121 -7.125000 0.000000 0.000000 95.114226 -10.835801 23.856178 -31.544022 39.990645 -9.068707 1.018137 -3.398036 19.531693 7.125000 0.000000 0.000000 
-0.716511 18.319528 5.837107 2.718472 2.516150 -0.076325 -17.261997 -9.885929 -3.309716 0.742543 5.984985 20.368938 -0.487695 4.782168 -10.164789 8.808500 -16.682900 -55.425300 3.075338 1.843846 -1.492702 0.007769 0.726887 1.402527 0.300479 -0.773680 5.480974 0.000000 0.000000 0.000000 -6.519459 1.246498 21.854218 1.215034 1.424054 -15.955883 1.860956 -3.311471 40.286885 0.209500 -1.059900 12.413800 -95.633181 7.387672 27.258628 23.653483 -32.782756 -5.825386 0.442243 -0.129432 14.150117 -7.125000 0.000000 0.000000 95.155442 -10.797261 23.841805 -31.516472 39.977592 -9.054102 1.012527 -3.398295 19.578002 7.125000 0.000000 0.000000 
-0.715140 18.319430 5.835540 2.740533 2.539367 -0.081673 -17.286154 -9.856660 -3.324733 0.744194 5.979986 20.359291 -0.472771 4.701985 -10.116452 8.791400 -16.671600 -55.366000 3.075304 1.843978 -1.491923 0.007681 0.727301 1.402570 0.300559 -0.773373 5.481294 0.000000 0.000000 0.000000 -6.494617 1.219329 21.893965 1.222009 1.413181 -15.960377 1.819424 -3.270058 40.283815 0.205000 -1.047400 12.418600 -95.613191 7.444121 27.358212 23.741191 -32.873207 -5.862793 0.441963 -0.122091 14.051733 -7.125000 0.000000 0.000000 95.157123 -10.757920 23.861612 -31.481578 39.956048 -9.041714 1.005319 -3.400658 19.541972 7.125000 0.000000 0.000000 
